<svg xmlns="http://www.w3.org/2000/svg" version="1.1" xmlns:xlink="http://www.w3.org/1999/xlink" xmlns:svgjs="http://svgjs.dev/svgjs" width="2000" height="353" viewBox="0 0 2000 353"><g transform="matrix(1,0,0,1,-1.2121212121212466,-0.12977990225851954)"><svg viewBox="0 0 396 70" data-background-color="#ffffff" preserveAspectRatio="xMidYMid meet" height="353" width="2000" xmlns="http://www.w3.org/2000/svg" xmlns:xlink="http://www.w3.org/1999/xlink"><g id="tight-bounds" transform="matrix(1,0,0,1,0.2400000000000091,0.025735391382710304)"><svg viewBox="0 0 395.52 69.94852921723455" height="69.94852921723455" width="395.52"><g><svg viewBox="0 0 498.66064182508654 88.18916483158121" height="69.94852921723455" width="395.52"><g transform="matrix(1,0,0,1,103.14064182508655,12.188227556318388)"><svg viewBox="0 0 395.52 63.81270971894443" height="63.81270971894443" width="395.52"><g id="textblocktransform"><svg viewBox="0 0 395.52 63.81270971894443" height="63.81270971894443" width="395.52" id="textblock"><g><svg viewBox="0 0 395.52 63.81270971894443" height="63.81270971894443" width="395.52"><g transform="matrix(1,0,0,1,0,0)"><svg width="395.52" viewBox="1.5 -37 233.03 37.6" height="63.81270971894443" data-palette-color="#000000"><path d="M13.2 0.6L13.2 0.6Q9.55 0.6 6.55-0.38 3.55-1.35 1.5-2.95L1.5-2.95 3.9-6.95Q5.7-5.45 7.95-4.5 10.2-3.55 13.2-3.55L13.2-3.55Q16.8-3.55 18.9-5.05 21-6.55 21-9.1L21-9.1Q21-10.55 20.4-11.68 19.8-12.8 18.07-13.88 16.35-14.95 13-16.2L13-16.2Q9.4-17.6 7.25-19.03 5.1-20.45 4.17-22.28 3.25-24.1 3.25-26.6L3.25-26.6Q3.25-29.1 4.63-31.13 6-33.15 8.68-34.38 11.35-35.6 15.15-35.6L15.15-35.6Q18.25-35.6 20.73-34.98 23.2-34.35 25.55-33.2L25.55-33.2 23.8-29.15Q22.1-30.15 19.83-30.83 17.55-31.5 15.05-31.5L15.05-31.5Q11.75-31.5 9.85-30.2 7.95-28.9 7.95-26.85L7.95-26.85Q7.95-25.55 8.5-24.55 9.05-23.55 10.68-22.6 12.3-21.65 15.55-20.45L15.55-20.45Q19.45-19 21.73-17.4 24-15.8 24.95-13.93 25.9-12.05 25.9-9.65L25.9-9.65Q25.9-6.4 24.28-4.1 22.65-1.8 19.78-0.6 16.9 0.6 13.2 0.6ZM41.5 0.6L41.5 0.6Q37.75 0.6 35.57-1.88 33.4-4.35 33.4-8.95L33.4-8.95 33.4-21.15 28.9-21.15 28.9-25.05 33.5-25.05 34.45-33.25 37.9-33.25 37.9-25.05 45.1-25.05 45.1-21.15 37.9-21.15 37.9-8.6Q37.9-5.7 39.12-4.55 40.35-3.4 42.05-3.4L42.05-3.4Q43.3-3.4 44.42-3.8 45.55-4.2 46.5-4.75L46.5-4.75 47.75-1.15Q46.75-0.55 45.05 0.03 43.35 0.6 41.5 0.6ZM62.2 0.6L62.2 0.6Q58.5 0.6 55.55-1.13 52.6-2.85 50.92-5.93 49.25-9 49.25-13L49.25-13Q49.25-17.2 50.95-20.25 52.65-23.3 55.6-24.95 58.55-26.6 62.2-26.6L62.2-26.6Q65.84-26.6 68.77-24.95 71.7-23.3 73.42-20.28 75.15-17.25 75.15-13.1L75.15-13.1Q75.15-8.95 73.45-5.88 71.75-2.8 68.82-1.1 65.9 0.6 62.2 0.6ZM62.2-3.4L62.2-3.4Q66.15-3.4 68.34-6.08 70.55-8.75 70.55-13L70.55-13Q70.55-15.6 69.45-17.78 68.34-19.95 66.47-21.28 64.59-22.6 62.2-22.6L62.2-22.6Q58.25-22.6 56.05-20 53.85-17.4 53.85-13.1L53.85-13.1Q53.85-10.5 54.95-8.28 56.05-6.05 57.92-4.73 59.8-3.4 62.2-3.4ZM91.64 0.6L91.64 0.6Q87.94 0.6 85.17-1.13 82.39-2.85 80.89-5.93 79.39-9 79.39-13L79.39-13Q79.39-16.75 80.92-19.85 82.44-22.95 85.29-24.78 88.14-26.6 91.99-26.6L91.99-26.6Q94.19-26.6 95.87-26.2 97.54-25.8 99.09-25.05L99.09-25.05 97.74-21.25Q96.34-21.95 95.07-22.28 93.79-22.6 92.24-22.6L92.24-22.6Q88.74-22.6 86.37-20.08 83.99-17.55 83.99-13.1L83.99-13.1Q83.99-10.4 84.99-8.2 85.99-6 87.77-4.7 89.54-3.4 91.94-3.4L91.94-3.4Q93.84-3.4 95.19-3.83 96.54-4.25 98.09-5.05L98.09-5.05 99.49-1.25Q97.94-0.4 96.02 0.1 94.09 0.6 91.64 0.6ZM125.79-2.5L122.69 0.5 109.24-13.35 109.24 0 104.74 0 104.74-37 109.24-37 109.24-15.85 120.99-26.5 123.59-23.65 113.54-14.75 125.79-2.5ZM142.44 0L136.54 0 127.04-33.85 131.74-35.35 139.64-5.05 147.09-31.35 153.04-31.35 160.44-5.05 168.29-35.2 172.69-33.85 163.24 0 157.34 0 149.94-26.3 142.44 0ZM181.94 0L177.44 0 177.44-26 181.94-26 181.94 0ZM179.69-30.45L179.69-30.45Q178.38-30.45 177.46-31.4 176.53-32.35 176.53-33.6L176.53-33.6Q176.53-35.05 177.38-35.9 178.24-36.75 179.69-36.75L179.69-36.75Q180.99-36.75 181.91-35.83 182.84-34.9 182.84-33.6L182.84-33.6Q182.84-32.2 181.99-31.33 181.13-30.45 179.69-30.45ZM196.93 0.6L196.93 0.6Q193.98 0.6 191.61-0.15 189.23-0.9 187.68-2.1L187.68-2.1 189.58-5.85Q190.88-4.75 192.86-4.03 194.83-3.3 197.08-3.3L197.08-3.3Q199.88-3.3 201.31-4.23 202.73-5.15 202.73-6.6L202.73-6.6Q202.73-7.65 202.21-8.45 201.68-9.25 200.28-10.03 198.88-10.8 196.23-11.7L196.23-11.7Q192.58-12.95 190.76-14.68 188.93-16.4 188.93-19.45L188.93-19.45Q188.93-22.45 191.56-24.53 194.18-26.6 198.83-26.6L198.83-26.6Q201.33-26.6 203.28-26.08 205.23-25.55 206.78-24.75L206.78-24.75 205.53-21.05Q204.18-21.85 202.46-22.35 200.73-22.85 198.63-22.85L198.63-22.85Q196.03-22.85 194.68-21.8 193.33-20.75 193.33-19.5L193.33-19.5Q193.33-18.3 194.38-17.45 195.43-16.6 198.48-15.6L198.48-15.6Q203.43-13.95 205.38-11.95 207.33-9.95 207.33-6.95L207.33-6.95Q207.33-3.45 204.51-1.43 201.68 0.6 196.93 0.6ZM223.73 0.6L223.73 0.6Q218.13 0.6 214.86-2.98 211.58-6.55 211.58-13L211.58-13Q211.58-16.9 213.06-19.98 214.53-23.05 217.18-24.83 219.83-26.6 223.33-26.6L223.33-26.6Q227.08-26.6 229.56-24.98 232.03-23.35 233.28-20.6 234.53-17.85 234.53-14.55L234.53-14.55Q234.53-12.8 234.38-11.15L234.38-11.15 216.18-11.15Q216.63-7.5 218.73-5.45 220.83-3.4 224.28-3.4L224.28-3.4Q226.53-3.4 228.33-3.88 230.13-4.35 231.78-5.1L231.78-5.1 232.83-1.25Q231.03-0.45 228.78 0.08 226.53 0.6 223.73 0.6ZM216.13-14.8L216.13-14.8 230.38-14.8Q230.38-18.6 228.48-20.65 226.58-22.7 223.23-22.7L223.23-22.7Q220.33-22.7 218.43-20.68 216.53-18.65 216.13-14.8Z" opacity="1" transform="matrix(1,0,0,1,0,0)" fill="#ffffff" class="wordmark-text-0" data-fill-palette-color="primary" id="text-0"></path></svg></g></svg></g></svg></g></svg></g><g><svg viewBox="0 0 88.07599256547702 88.18916483158121" height="88.18916483158121" width="88.07599256547702"><g><svg xmlns="http://www.w3.org/2000/svg" xmlns:xlink="http://www.w3.org/1999/xlink" version="1.1" x="0" y="0" viewBox="0.5 0.5 71.90760312590483 72" enable-background="new 0 0 73 73" xml:space="preserve" height="88.18916483158121" width="88.07599256547702" class="icon-icon-0" data-fill-palette-color="accent" id="icon-0"><path d="M70.5 0.5h-7.1c-1.1 0-2 0.9-2 2v22.1H40.2c0 0 0 0 0-0.1V8.6c0-2.2-1.8-4.1-4.1-4.1H20.2c-2.2 0-4.1 1.8-4.1 4.1v15.9c0 0 0 0 0 0.1h-4.5V2.5c0-1.1-0.9-2-2-2H2.5c-1.1 0-2 0.9-2 2v68c0 1.1 0.9 2 2 2h7.1c1.1 0 2-0.9 2-2V59.8h49.7v10.7c0 1.1 0.9 2 2 2h7.1c1.1 0 2-0.9 2-2v-68C72.5 1.4 71.6 0.5 70.5 0.5zM7.6 68.5H4.5v-64h3.1V68.5zM20.1 24.5l0.1-16 6 0v3.3c0 1.1 0.9 2 2 2s2-0.9 2-2V8.6l6 0v15.9c0 0 0 0.1-0.1 0.1L20.1 24.5zM51.4 55.7C51.4 55.8 51.3 55.8 51.4 55.7H35.3l0.1-16 6 0v3.3c0 1.1 0.9 2 2 2s2-0.9 2-2v-3.3l6 0V55.7zM61.4 55.8h-6c0 0 0 0 0-0.1V39.8c0-2.2-1.8-4.1-4.1-4.1H35.3c-2.2 0-4.1 1.8-4.1 4.1v15.9c0 0 0 0 0 0.1H11.6V28.6h49.7V55.8zM68.5 68.5h-3.1v-64h3.1V68.5z" fill="#ffffff" data-fill-palette-color="accent"></path></svg></g></svg></g></svg></g><defs></defs></svg><rect width="395.52" height="69.94852921723455" fill="none" stroke="none" visibility="hidden"></rect></g></svg></g></svg>