<svg xmlns="http://www.w3.org/2000/svg" version="1.1" xmlns:xlink="http://www.w3.org/1999/xlink" xmlns:svgjs="http://svgjs.dev/svgjs" width="128" height="128" viewBox="0 0 128 128"><g transform="matrix(0.8046875,0,0,0.8046875,12.694328579579349,12.760752631578946)"><svg viewBox="0 0 95 95" data-background-color="#ffffff" preserveAspectRatio="xMidYMid meet" height="128" width="128" xmlns="http://www.w3.org/2000/svg" xmlns:xlink="http://www.w3.org/1999/xlink"><g id="tight-bounds" transform="matrix(1,0,0,1,-0.17923509767027213,-0.24049999999999727)"><svg viewBox="0 0 95.35847019534054 95.481" height="95.481" width="95.35847019534054"><g><svg viewBox="0 0 95.35847019534054 95.481" height="95.481" width="95.35847019534054"><g><svg viewBox="0 0 95.35847019534054 95.481" height="95.481" width="95.35847019534054"><g id="textblocktransform"><svg viewBox="0 0 95.35847019534054 95.481" height="95.481" width="95.35847019534054" id="textblock"><g><svg viewBox="0 0 95.35847019534054 95.481" height="95.481" width="95.35847019534054"><g><svg viewBox="0 0 95.35847019534054 95.481" height="95.481" width="95.35847019534054"><g><svg xmlns="http://www.w3.org/2000/svg" xmlns:xlink="http://www.w3.org/1999/xlink" version="1.1" x="0" y="0" viewBox="0.5 0.5 71.90760312590483 72" enable-background="new 0 0 73 73" xml:space="preserve" height="95.481" width="95.35847019534054" class="icon-icon-0" data-fill-palette-color="accent" id="icon-0"><path d="M70.5 0.5h-7.1c-1.1 0-2 0.9-2 2v22.1H40.2c0 0 0 0 0-0.1V8.6c0-2.2-1.8-4.1-4.1-4.1H20.2c-2.2 0-4.1 1.8-4.1 4.1v15.9c0 0 0 0 0 0.1h-4.5V2.5c0-1.1-0.9-2-2-2H2.5c-1.1 0-2 0.9-2 2v68c0 1.1 0.9 2 2 2h7.1c1.1 0 2-0.9 2-2V59.8h49.7v10.7c0 1.1 0.9 2 2 2h7.1c1.1 0 2-0.9 2-2v-68C72.5 1.4 71.6 0.5 70.5 0.5zM7.6 68.5H4.5v-64h3.1V68.5zM20.1 24.5l0.1-16 6 0v3.3c0 1.1 0.9 2 2 2s2-0.9 2-2V8.6l6 0v15.9c0 0 0 0.1-0.1 0.1L20.1 24.5zM51.4 55.7C51.4 55.8 51.3 55.8 51.4 55.7H35.3l0.1-16 6 0v3.3c0 1.1 0.9 2 2 2s2-0.9 2-2v-3.3l6 0V55.7zM61.4 55.8h-6c0 0 0 0 0-0.1V39.8c0-2.2-1.8-4.1-4.1-4.1H35.3c-2.2 0-4.1 1.8-4.1 4.1v15.9c0 0 0 0 0 0.1H11.6V28.6h49.7V55.8zM68.5 68.5h-3.1v-64h3.1V68.5z" fill="#000000" data-fill-palette-color="accent"></path></svg></g></svg></g></svg></g></svg></g></svg></g></svg></g><defs></defs></svg><rect width="95.35847019534054" height="95.481" fill="none" stroke="none" visibility="hidden"></rect></g></svg></g></svg>